<svg width="65" height="64" viewBox="0 0 65 64" fill="none" xmlns="http://www.w3.org/2000/svg">
  <path d="M32.5 63.8182C50.4492 63.8182 65 49.532 65 31.9091C65 14.2862 50.4492 0 32.5 0C14.5508 0 0 14.2862 0 31.9091C0 49.532 14.5508 63.8182 32.5 63.8182Z" fill="#3171F6"/>
  <path d="M30.5716 48.9384H28.6441L30.5716 35.6942H23.8291C22.7116 35.6942 22.7303 35.0885 23.0941 34.4453C23.4616 33.8021 23.1916 34.294 23.2291 34.2181C25.7153 29.9045 29.4541 23.4713 34.4266 14.8816H36.3541L34.4266 28.1258H41.1728C42.1141 28.1258 42.2491 28.7503 42.0766 29.0908L41.9415 29.3747C34.3478 42.4109 30.5716 48.9384 30.5716 48.9384Z" fill="white"/>
</svg>
